{
  "source": "C:\\Users\\Peter\\Desktop\\stuff\\MIUN\\quantitative_research\\video_compression\\videos\\HEVC_CLASS_B\\Cactus_1920x1080_50.y4m",
  "output": "C:\\Users\\Peter\\Desktop\\stuff\\MIUN\\quantitative_research\\video_compression\\compressed_videos\\HEVC_CLASS_B\\h264\\4\\Cactus_1920x1080_50_h264.mp4",
  "codec": "h264",
  "ok": "Input #0, yuv4mpegpipe, from 'C:\\Users\\Peter\\Desktop\\stuff\\MIUN\\quantitative_research\\video_compression\\videos\\HEVC_CLASS_B\\Cactus_1920x1080_50.y4m':\n  Duration: 00:00:10.00, start: 0.000000, bitrate: 1244162 kb/s\n  Stream #0:0: Video: rawvideo (I420 / 0x30323449), yuv420p(progressive), 1920x1080, 50 fps, 50 tbr, 50 tbn\n[out#0/mp4 @ 000001cbe38aa140] Codec AVOption b:a (set bitrate (in bits/s)) has not been used for any stream. The most likely reason is either wrong type (e.g. a video option with no video streams) or that it is a private option of some decoder which was not actually used for any stream.\nStream mapping:\n  Stream #0:0 -> #0:0 (rawvideo (native) -> h264 (libx264))\nPress [q] to stop, [?] for help\n[libx264 @ 000001cbe38ac900] using cpu capabilities: MMX2 SSE2Fast SSSE3 SSE4.2 AVX FMA3 BMI2 AVX2\n[libx264 @ 000001cbe38ac900] profile High, level 5.0, 4:2:0, 8-bit\n[libx264 @ 000001cbe38ac900] 264 - core 165 r3222 b35605a - H.264/MPEG-4 AVC codec - Copyleft 2003-2025 - http://www.videolan.org/x264.html - options: cabac=1 ref=5 deblock=1:0:0 analyse=0x3:0x113 me=hex subme=8 psy=1 psy_rd=1.00:0.00 mixed_ref=1 me_range=16 chroma_me=1 trellis=2 8x8dct=1 cqm=0 deadzone=21,11 fast_pskip=1 chroma_qp_offset=-2 threads=18 lookahead_threads=3 sliced_threads=0 nr=0 decimate=1 interlaced=0 bluray_compat=0 constrained_intra=0 bframes=3 b_pyramid=2 b_adapt=1 b_bias=0 direct=3 weightb=1 open_gop=0 weightp=2 keyint=250 keyint_min=25 scenecut=40 intra_refresh=0 rc_lookahead=50 rc=cbr mbtree=1 bitrate=4000 ratetol=1.0 qcomp=0.60 qpmin=0 qpmax=69 qpstep=4 vbv_maxrate=4000 vbv_bufsize=4000 nal_hrd=none filler=0 ip_ratio=1.40 aq=1:1.00\nOutput #0, mp4, to 'C:\\Users\\Peter\\Desktop\\stuff\\MIUN\\quantitative_research\\video_compression\\compressed_videos\\HEVC_CLASS_B\\h264\\4\\Cactus_1920x1080_50_h264.mp4':\n  Metadata:\n    encoder         : Lavf62.3.100\n  Stream #0:0: Video: h264 (avc1 / 0x31637661), yuv420p(tv, progressive), 1920x1080, q=2-31, 4000 kb/s, 50 fps, 12800 tbn\n    Metadata:\n      encoder         : Lavc62.11.100 libx264\n    Side data:\n      cpb: bitrate max/min/avg: 4000000/0/4000000 buffer size: 4000000 vbv_delay: N/A\nframe=    0 fps=0.0 q=0.0 size=       0KiB time=N/A bitrate=N/A speed=N/A elapsed=0:00:00.51    \nframe=    0 fps=0.0 q=0.0 size=       0KiB time=N/A bitrate=N/A speed=N/A elapsed=0:00:01.08    \nframe=   28 fps= 17 q=36.0 size=       0KiB time=00:00:00.46 bitrate=   0.8kbits/s speed=0.286x elapsed=0:00:01.60    \nframe=   53 fps= 24 q=37.0 size=     256KiB time=00:00:00.98 bitrate=2140.3kbits/s speed=0.447x elapsed=0:00:02.19    \nframe=   77 fps= 28 q=36.0 size=     512KiB time=00:00:01.42 bitrate=2954.0kbits/s speed=0.515x elapsed=0:00:02.75    \nframe=  104 fps= 31 q=36.0 size=     768KiB time=00:00:01.92 bitrate=3277.0kbits/s speed=0.568x elapsed=0:00:03.37    \nframe=  132 fps= 33 q=36.0 size=    1024KiB time=00:00:02.46 bitrate=3410.2kbits/s speed=0.619x elapsed=0:00:03.97    \nframe=  156 fps= 34 q=36.0 size=    1024KiB time=00:00:03.04 bitrate=2759.5kbits/s speed=0.657x elapsed=0:00:04.62    \nframe=  177 fps= 34 q=36.0 size=    1280KiB time=00:00:03.50 bitrate=2996.0kbits/s speed=0.674x elapsed=0:00:05.19    \nframe=  204 fps= 35 q=36.0 size=    1536KiB time=00:00:03.98 bitrate=3161.6kbits/s speed=0.691x elapsed=0:00:05.76    \nframe=  231 fps= 37 q=36.0 size=    1792KiB time=00:00:04.52 bitrate=3247.9kbits/s speed=0.715x elapsed=0:00:06.31    \nframe=  246 fps= 36 q=36.0 size=    2048KiB time=00:00:04.88 bitrate=3438.0kbits/s speed=0.707x elapsed=0:00:06.90    \nframe=  267 fps= 36 q=36.0 size=    2304KiB time=00:00:05.22 bitrate=3615.9kbits/s speed=0.703x elapsed=0:00:07.42    \nframe=  287 fps= 36 q=36.0 size=    2304KiB time=00:00:05.70 bitrate=3311.4kbits/s speed=0.713x elapsed=0:00:07.98    \nframe=  315 fps= 37 q=36.0 size=    2560KiB time=00:00:06.26 bitrate=3350.1kbits/s speed=0.733x elapsed=0:00:08.54    \nframe=  338 fps= 37 q=36.0 size=    2816KiB time=00:00:06.66 bitrate=3463.8kbits/s speed=0.734x elapsed=0:00:09.07    \nframe=  359 fps= 37 q=36.0 size=    3072KiB time=00:00:07.14 bitrate=3524.7kbits/s speed=0.74x elapsed=0:00:09.64    \nframe=  383 fps= 37 q=36.0 size=    3328KiB time=00:00:07.62 bitrate=3577.9kbits/s speed=0.745x elapsed=0:00:10.22    \nframe=  407 fps= 38 q=36.0 size=    3584KiB time=00:00:08.06 bitrate=3642.7kbits/s speed=0.744x elapsed=0:00:10.83    \nframe=  439 fps= 38 q=36.0 size=    3840KiB time=00:00:08.58 bitrate=3666.4kbits/s speed=0.744x elapsed=0:00:11.53    \nframe=  464 fps= 38 q=35.0 size=    4096KiB time=00:00:09.22 bitrate=3639.4kbits/s speed=0.757x elapsed=0:00:12.18    \nframe=  491 fps= 39 q=-1.0 size=    4352KiB time=00:00:09.78 bitrate=3645.4kbits/s speed=0.767x elapsed=0:00:12.74    \n[mp4 @ 000001cbe38aa280] Starting second pass: moving the moov atom to the beginning of the file\n[out#0/mp4 @ 000001cbe38aa140] video:4514KiB audio:0KiB subtitle:0KiB other streams:0KiB global headers:0KiB muxing overhead: 0.149670%\nframe=  500 fps= 39 q=-1.0 Lsize=    4521KiB time=00:00:09.96 bitrate=3718.7kbits/s speed=0.772x elapsed=0:00:12.90    \n[libx264 @ 000001cbe38ac900] frame I:2     Avg QP:32.03  size:106032\n[libx264 @ 000001cbe38ac900] frame P:126   Avg QP:33.61  size: 21056\n[libx264 @ 000001cbe38ac900] frame B:372   Avg QP:37.86  size:  4723\n[libx264 @ 000001cbe38ac900] consecutive B-frames:  0.8%  0.0%  0.0% 99.2%\n[libx264 @ 000001cbe38ac900] mb I  I16..4: 20.6% 63.6% 15.8%\n[libx264 @ 000001cbe38ac900] mb P  I16..4:  1.0%  3.6%  0.3%  P16..4: 28.7%  8.3%  5.5%  0.0%  0.0%    skip:52.6%\n[libx264 @ 000001cbe38ac900] mb B  I16..4:  0.1%  0.3%  0.0%  B16..8: 25.5%  1.8%  0.3%  direct: 0.9%  skip:71.2%  L0:39.2% L1:57.8% BI: 3.0%\n[libx264 @ 000001cbe38ac900] 8x8 transform intra:71.4% inter:80.2%\n[libx264 @ 000001cbe38ac900] direct mvs  spatial:97.3% temporal:2.7%\n[libx264 @ 000001cbe38ac900] coded y,uvDC,uvAC intra: 52.5% 54.8% 18.6% inter: 5.7% 4.8% 0.2%\n[libx264 @ 000001cbe38ac900] i16 v,h,dc,p: 18% 24%  3% 55%\n[libx264 @ 000001cbe38ac900] i8 v,h,dc,ddl,ddr,vr,hd,vl,hu:  7%  4%  3% 13% 20% 15% 15% 13%  9%\n[libx264 @ 000001cbe38ac900] i4 v,h,dc,ddl,ddr,vr,hd,vl,hu:  9%  6%  4% 13% 18% 15% 13% 11% 12%\n[libx264 @ 000001cbe38ac900] i8c dc,h,v,p: 37% 23% 18% 22%\n[libx264 @ 000001cbe38ac900] Weighted P-Frames: Y:0.0% UV:0.0%\n[libx264 @ 000001cbe38ac900] ref P L0: 57.6% 17.3% 14.5%  4.6%  6.0%\n[libx264 @ 000001cbe38ac900] ref B L0: 89.0%  7.3%  2.6%  1.1%\n[libx264 @ 000001cbe38ac900] ref B L1: 97.4%  2.6%\n[libx264 @ 000001cbe38ac900] kb/s:3697.65\n",
  "seconds": 13.118031740188599,
  "probe_out": {}
}